<svg version="1.1" width="185" height="40" xmlns="http://www.w3.org/2000/svg" x="0" y="0" viewBox="0 0 185 39.44" xml:space="preserve"><defs/><style>.st0{fill:#fff}.st1{fill:#0075c9}.st2{fill:#5da9df}.st3{fill:#99c5e9}</style><path class="st0" d="M18.63 35.21c0 2.18-1.77 3.94-3.94 3.94s-3.94-1.77-3.94-3.94c0-2.18 1.77-3.94 3.94-3.94s3.94 1.76 3.94 3.94M29.37 24.78c0 2.18-1.77 3.94-3.94 3.94-2.18 0-3.94-1.77-3.94-3.94 0-2.18 1.77-3.94 3.94-3.94 2.18 0 3.94 1.77 3.94 3.94M29.37 35.21c0 2.18-1.77 3.94-3.94 3.94-2.18 0-3.94-1.77-3.94-3.94 0-2.18 1.77-3.94 3.94-3.94 2.18-.01 3.94 1.76 3.94 3.94M40.12 14.36c0 2.18-1.77 3.94-3.94 3.94-2.18 0-3.94-1.77-3.94-3.94s1.77-3.94 3.94-3.94 3.94 1.77 3.94 3.94M40.12 24.78c0 2.18-1.77 3.94-3.94 3.94-2.18 0-3.94-1.77-3.94-3.94 0-2.18 1.77-3.94 3.94-3.94s3.94 1.77 3.94 3.94M40.12 35.21c0 2.18-1.77 3.94-3.94 3.94-2.18 0-3.94-1.77-3.94-3.94 0-2.18 1.77-3.94 3.94-3.94 2.17-.01 3.94 1.76 3.94 3.94"/><path class="st1" d="M7.89 35.21c0 2.18-1.77 3.94-3.94 3.94-2.18 0-3.95-1.77-3.95-3.94s1.77-3.94 3.94-3.94c2.18-.01 3.95 1.76 3.95 3.94M18.63 24.78c0 2.18-1.77 3.94-3.94 3.94-2.18 0-3.94-1.77-3.94-3.94s1.77-3.94 3.94-3.94 3.94 1.77 3.94 3.94"/><path class="st2" d="M14.69 31.26c-2.18 0-3.94 1.77-3.94 3.94 0 2.18 1.77 3.94 3.94 3.94 2.18 0 3.94-1.77 3.94-3.94s-1.77-3.94-3.94-3.94"/><path class="st1" d="M29.37 14.36c0 2.18-1.77 3.94-3.94 3.94s-3.94-1.77-3.94-3.94 1.77-3.94 3.94-3.94 3.94 1.77 3.94 3.94"/><path class="st2" d="M25.43 20.84c-2.18 0-3.94 1.77-3.94 3.94 0 2.18 1.77 3.94 3.94 3.94 2.18 0 3.94-1.77 3.94-3.94s-1.76-3.94-3.94-3.94"/><path class="st3" d="M25.43 31.26c-2.18 0-3.94 1.77-3.94 3.94 0 2.18 1.77 3.94 3.94 3.94 2.18 0 3.94-1.77 3.94-3.94s-1.76-3.94-3.94-3.94"/><path class="st1" d="M40.12 3.94c0 2.18-1.77 3.94-3.94 3.94-2.18 0-3.94-1.77-3.94-3.94S33.99 0 36.17 0s3.95 1.77 3.95 3.94"/><path class="st2" d="M36.17 10.42c-2.18 0-3.94 1.77-3.94 3.94S34 18.3 36.17 18.3c2.18 0 3.94-1.77 3.94-3.94s-1.76-3.94-3.94-3.94"/><path class="st3" d="M36.17 20.84c-2.18 0-3.94 1.77-3.94 3.94 0 2.18 1.77 3.94 3.94 3.94 2.18 0 3.94-1.77 3.94-3.94.01-2.17-1.76-3.94-3.94-3.94"/><path d="M36.17 31.26c-2.18 0-3.94 1.77-3.94 3.94 0 2.18 1.77 3.94 3.94 3.94 2.18 0 3.94-1.77 3.94-3.94.01-2.17-1.76-3.94-3.94-3.94" fill="#CDE1F4"/><path d="M57.5 3.71c0 .62-.14 1.16-.41 1.63-.27.47-.67.83-1.19 1.08.74.26 1.3.67 1.69 1.22s.59 1.21.59 1.97c0 1.25-.46 2.2-1.37 2.85-.91.65-2.28.98-4.11.98h-4.54V11.8h1.62V1.96h-1.62V.32h4.61c1.6 0 2.78.28 3.56.84.78.56 1.17 1.41 1.17 2.55zm-1.96.11c0-.62-.22-1.08-.65-1.39-.44-.31-1.05-.47-1.85-.47h-1.3v3.83h1.31c1.67 0 2.49-.66 2.49-1.97zm.63 5.76c0-.73-.26-1.27-.77-1.62-.51-.36-1.31-.54-2.39-.54h-1.26v4.39h.78c.78 0 1.43-.05 1.93-.14.51-.1.92-.3 1.23-.63.32-.32.48-.81.48-1.46zM67.26 7.52v4.32h1.53v1.6h-3.12v-1.12c-.87.85-1.84 1.28-2.91 1.28-.56 0-1.08-.13-1.55-.39s-.84-.61-1.12-1.05c-.28-.44-.42-.92-.42-1.46 0-.57.16-1.09.47-1.54.31-.45.73-.8 1.26-1.04s1.06-.37 1.59-.37c.89 0 1.73.26 2.5.78v-.97c0-.71-.15-1.22-.45-1.53-.3-.31-.8-.46-1.49-.46-.49 0-.9.09-1.22.27-.33.18-.6.45-.81.81l-1.72-.43c.39-.73.91-1.27 1.58-1.62.66-.36 1.45-.54 2.36-.54 1.22 0 2.12.28 2.69.84.55.54.83 1.42.83 2.62zm-4.25 4.7c.88 0 1.71-.37 2.48-1.11v-1.07c-.78-.61-1.57-.91-2.35-.91-.48 0-.89.15-1.23.45-.35.3-.52.68-.52 1.13 0 .44.15.8.45 1.08.31.28.7.43 1.17.43zM73.15 9.77v2.07h1.99v1.6h-5.62v-1.6h1.84V5.9h-1.84V4.29h3.26v2.07c.37-.82.82-1.39 1.36-1.71.54-.32 1.32-.48 2.33-.48h.41v1.82h-.38c-.97 0-1.7.13-2.18.38-.48.26-.79.64-.94 1.16s-.23 1.27-.23 2.24zM86.61 7.29v4.55h1.53v1.6h-3.33V7.4c0-.57-.08-.99-.25-1.24-.17-.25-.44-.37-.81-.37-.8 0-1.7.39-2.7 1.18v4.87h1.58v1.6h-4.96v-1.6h1.61V5.9h-1.61V4.29h3.39V5.4c1.12-.82 2.17-1.23 3.16-1.23.82 0 1.42.25 1.82.76s.57 1.29.57 2.36zM98.82 9.33h-7.67c.11.88.45 1.57 1.02 2.08.57.51 1.27.76 2.09.76.6 0 1.16-.12 1.68-.37s.95-.63 1.3-1.15l1.58.71c-.5.78-1.15 1.37-1.96 1.76-.81.4-1.69.6-2.64.6-.99 0-1.86-.21-2.63-.62-.77-.41-1.36-.99-1.79-1.72-.43-.74-.64-1.57-.64-2.49 0-.92.21-1.74.63-2.48.42-.74 1-1.31 1.73-1.73.73-.42 1.54-.62 2.42-.62.96 0 1.8.21 2.52.64.72.43 1.28 1.04 1.69 1.83s.64 1.72.67 2.8zm-4.85-3.78c-.68 0-1.27.23-1.78.68-.51.46-.84 1.06-.98 1.81h5.73c-.17-.75-.53-1.35-1.07-1.81s-1.18-.68-1.9-.68zM105.73 4.69v-.4h1.57v3.04h-1.57v-.55c-.52-.75-1.24-1.12-2.14-1.12-.48 0-.87.1-1.17.31s-.45.48-.45.81c0 .3.11.53.34.7.23.17.74.32 1.55.44l1.21.23c1.81.33 2.71 1.22 2.71 2.66 0 .84-.33 1.52-.98 2.03-.65.51-1.52.77-2.6.77-.43 0-.85-.06-1.27-.19-.42-.12-.76-.28-1.04-.47v.5h-1.6v-3.13h1.6v.31c.09.44.33.8.74 1.06.4.27.87.4 1.41.4.59 0 1.05-.1 1.38-.31.34-.21.51-.51.51-.92 0-.3-.13-.52-.4-.67s-.8-.3-1.61-.46l-.93-.2c-.92-.19-1.6-.51-2.03-.96-.43-.45-.64-1.03-.64-1.73 0-.57.16-1.06.47-1.46.32-.4.72-.71 1.21-.91.49-.2 1-.3 1.52-.3.87 0 1.61.17 2.21.52zM122.3 2.93c0 .56-.13 1.02-.38 1.39-.26.37-.56.66-.92.87s-.84.45-1.46.71l2.67 3.61c.48-.84.82-1.85 1.02-3.01h2.69v1.61h-1.38c-.35 1.24-.79 2.17-1.31 2.79l.7.9h1.99v1.64h-2.98l-.87-1.16c-1.15.92-2.33 1.38-3.52 1.38-.88 0-1.67-.19-2.39-.58s-1.27-.92-1.68-1.59c-.4-.67-.61-1.41-.61-2.23 0-.89.25-1.66.74-2.31.49-.65 1.25-1.2 2.26-1.65-.61-.77-.91-1.54-.91-2.3 0-.56.15-1.06.45-1.5.3-.44.69-.78 1.18-1.03.49-.24 1.01-.37 1.57-.37.57 0 1.09.12 1.58.37.48.24.86.58 1.14 1.02.28.44.42.92.42 1.44zm-3.52 9.09c.84 0 1.6-.35 2.28-1.05l-3.2-4.46c-.68.32-1.19.7-1.53 1.12-.33.42-.5.92-.5 1.5 0 .52.13 1 .38 1.45.26.44.61.79 1.06 1.05.46.26.96.39 1.51.39zm-.19-7.35c.73-.31 1.24-.59 1.53-.86.29-.27.44-.58.44-.93 0-.33-.12-.61-.35-.85-.23-.24-.57-.37-1.01-.37-.42 0-.75.12-1.01.36s-.38.55-.38.93c0 .13.05.3.13.51.1.21.31.62.65 1.21zM141.83 1.96h-1.87V.32h5.38v1.64h-1.92v11.62h-2.04l-6.29-11.21v9.44h1.88v1.64h-5.37v-1.64h1.87V1.96h-1.87V.32h4.47l5.76 10.19V1.96zM156.02 8.88c0 .89-.21 1.7-.64 2.44s-1 1.32-1.73 1.75c-.73.43-1.54.64-2.43.64-.92 0-1.74-.21-2.48-.64s-1.31-1.01-1.72-1.75c-.41-.74-.61-1.55-.61-2.44 0-.93.2-1.76.61-2.49.41-.73.98-1.3 1.71-1.72.73-.42 1.56-.62 2.49-.62.9 0 1.72.22 2.45.66.73.44 1.31 1.03 1.72 1.76s.63 1.54.63 2.41zm-4.79 3.08c.53 0 1.02-.14 1.47-.42.45-.28.79-.65 1.04-1.12s.37-.98.37-1.54c0-.55-.12-1.05-.37-1.52s-.6-.85-1.04-1.14c-.45-.29-.94-.43-1.49-.43-.53 0-1.02.14-1.47.42-.45.28-.8.66-1.05 1.14-.26.48-.38.99-.38 1.53 0 .55.13 1.06.38 1.53.26.48.61.85 1.06 1.13.45.29.94.42 1.48.42zM163.75 4.05c.84 0 1.6.21 2.28.64s1.21 1 1.59 1.73c.38.73.57 1.51.57 2.35 0 .87-.19 1.67-.58 2.41-.39.74-.92 1.33-1.6 1.76-.68.44-1.44.66-2.28.66-.67 0-1.3-.14-1.9-.41-.6-.27-1.07-.65-1.41-1.12v1.38h-3.37v-1.6h1.62V1.91h-1.62V.32h3.37V5.6c.91-1.03 2.02-1.55 3.33-1.55zm-.38 7.95c.57 0 1.08-.15 1.52-.46.45-.31.79-.71 1.04-1.21.24-.5.37-1.03.37-1.59s-.13-1.07-.37-1.53c-.25-.46-.59-.83-1.04-1.11-.44-.27-.94-.41-1.5-.41s-1.06.14-1.5.43c-.44.28-.79.67-1.04 1.16-.25.49-.37 1.03-.37 1.63 0 .57.13 1.09.38 1.57s.6.85 1.04 1.12c.45.26.94.4 1.47.4zM174.02 11.84v1.6h-4.81v-1.6h1.62V1.91h-1.62V.32h3.42v11.52h1.39zM184.89 9.33h-7.67c.11.88.45 1.57 1.02 2.08.57.51 1.27.76 2.09.76.6 0 1.16-.12 1.68-.37s.95-.63 1.3-1.15l1.58.71c-.5.78-1.15 1.37-1.96 1.76-.81.4-1.69.6-2.64.6-.99 0-1.86-.21-2.63-.62-.77-.41-1.36-.99-1.79-1.72-.43-.74-.64-1.57-.64-2.49 0-.92.21-1.74.63-2.48.42-.74 1-1.31 1.73-1.73.73-.42 1.54-.62 2.42-.62.96 0 1.8.21 2.52.64s1.28 1.04 1.69 1.83c.41.78.63 1.72.67 2.8zm-4.85-3.78c-.68 0-1.27.23-1.79.68s-.84 1.06-.98 1.81H183c-.17-.75-.53-1.35-1.07-1.81-.55-.45-1.18-.68-1.89-.68zM64.94 21.05v-2.24h2.59v6.5h-2.64c-.66-1.3-1.58-2.32-2.73-3.04-1.16-.73-2.43-1.09-3.81-1.09-1.34 0-2.53.35-3.58 1.06-1.05.7-1.87 1.65-2.46 2.83-.59 1.18-.88 2.45-.88 3.8 0 1.4.31 2.69.92 3.88.61 1.18 1.46 2.13 2.54 2.84s2.28 1.06 3.59 1.06c1.62 0 3.06-.5 4.31-1.49 1.25-.99 2.16-2.4 2.73-4.22l2.59 1.37c-.7 2.26-1.94 4.01-3.71 5.26-1.77 1.24-3.85 1.86-6.24 1.86-1.97 0-3.71-.47-5.24-1.41-1.53-.94-2.71-2.2-3.56-3.78-.85-1.58-1.27-3.32-1.27-5.22 0-2.05.43-3.89 1.3-5.49.87-1.61 2.06-2.85 3.59-3.74 1.53-.88 3.27-1.33 5.24-1.33 1.32 0 2.54.22 3.65.66 1.1.46 2.12 1.1 3.07 1.93zM91.8 28.9c0 2.06-.46 3.9-1.37 5.51-.91 1.61-2.17 2.85-3.78 3.72-1.61.87-3.43 1.31-5.48 1.31-2.02 0-3.81-.46-5.39-1.37-1.57-.91-2.79-2.17-3.67-3.78-.88-1.61-1.31-3.43-1.31-5.45 0-2 .45-3.79 1.34-5.36.89-1.57 2.12-2.8 3.7-3.68 1.57-.88 3.36-1.33 5.36-1.33 2.08 0 3.93.46 5.53 1.37 1.61.91 2.85 2.16 3.74 3.74.88 1.58 1.33 3.35 1.33 5.32zm-10.51 7.84c1.39 0 2.63-.36 3.73-1.09 1.09-.73 1.94-1.69 2.54-2.89.6-1.2.9-2.49.9-3.85 0-1.39-.32-2.68-.95-3.87-.63-1.19-1.51-2.13-2.62-2.81-1.11-.69-2.37-1.03-3.77-1.03-1.37 0-2.59.33-3.65 1-1.06.67-1.88 1.59-2.46 2.77-.58 1.18-.87 2.48-.87 3.92 0 1.53.29 2.89.87 4.08.58 1.19 1.41 2.12 2.5 2.79 1.09.64 2.35.98 3.78.98zM99.29 21.35v15.23h6.66v-6.29h2.52v8.82H93.61v-2.53h2.61V21.35h-2.61v-2.53h8.29v2.53h-2.61zM115.5 21.35v15.23h6.66v-6.29h2.52v8.82h-14.86v-2.53h2.61V21.35h-2.61v-2.53h8.29v2.53h-2.61zM140.4 24.74v-3.39h-8.68v6.04h7.55v2.53h-7.55v6.65h8.68v-3.7h2.5v6.23h-16.87v-2.53h2.61V21.35h-2.61v-2.53h16.87v5.92h-2.5zM162.65 21.05v-2.24h2.58v6.66h-2.58c-.59-1.3-1.53-2.34-2.81-3.12-1.28-.78-2.62-1.17-4.03-1.17-1.4 0-2.65.33-3.74.99-1.1.66-1.95 1.57-2.55 2.73-.61 1.16-.91 2.47-.91 3.94 0 1.54.32 2.91.96 4.11.64 1.19 1.52 2.12 2.66 2.79 1.14.66 2.43 1 3.88 1 1.1 0 2.13-.2 3.08-.61.95-.4 1.73-.98 2.36-1.72.62-.74 1.01-1.6 1.16-2.56h-3.73v-2.56h7.39v.66c0 1.93-.44 3.61-1.32 5.05-.88 1.44-2.09 2.54-3.64 3.3-1.55.76-3.29 1.14-5.22 1.14-2.2 0-4.13-.44-5.78-1.33-1.66-.88-2.93-2.12-3.81-3.71-.88-1.59-1.33-3.43-1.33-5.53 0-2 .44-3.79 1.33-5.37.88-1.58 2.1-2.81 3.65-3.7 1.55-.88 3.31-1.33 5.28-1.33 2.78.01 5.16.87 7.12 2.58zM182.5 24.74v-3.39h-8.68v6.04h7.55v2.53h-7.55v6.65h8.68v-3.7h2.5v6.23h-16.87v-2.53h2.61V21.35h-2.61v-2.53H185v5.92h-2.5z"/></svg>
